<?xml version="1.0" encoding="UTF-8"?>
<svg xmlns="http://www.w3.org/2000/svg" width="30" height="30" viewBox="0 0 30 30">
  <path fill="#FFFFFF" d="M15,3c-3.26,0-3.67,0.01-4.95,0.07c-1.28,0.06-2.15,0.26-2.91,0.56c-0.79,0.31-1.46,0.72-2.13,1.38
    c-0.67,0.67-1.07,1.34-1.38,2.13c-0.29,0.76-0.5,1.63-0.56,2.91C3.01,11.33,3,11.74,3,15c0,3.26,0.01,3.67,0.07,4.95
    c0.06,1.28,0.26,2.15,0.56,2.91c0.31,0.79,0.72,1.46,1.38,2.13c0.67,0.67,1.34,1.07,2.13,1.38c0.76,0.29,1.63,0.5,2.91,0.56
    C11.33,26.99,11.74,27,15,27c3.26,0,3.67-0.01,4.95-0.07c1.28-0.06,2.15-0.26,2.91-0.56c0.79-0.31,1.46-0.72,2.13-1.38
    c0.67-0.67,1.07-1.34,1.38-2.13c0.29-0.76,0.5-1.63,0.56-2.91C26.99,18.67,27,18.26,27,15c0-3.26-0.01-3.67-0.07-4.95
    c-0.06-1.28-0.26-2.15-0.56-2.91c-0.31-0.79-0.72-1.46-1.38-2.13c-0.67-0.67-1.34-1.07-2.13-1.38c-0.76-0.29-1.63-0.5-2.91-0.56
    C18.67,3.01,18.26,3,15,3z M15,5.37c3.2,0,3.58,0.01,4.85,0.07c1.17,0.05,1.8,0.25,2.23,0.41c0.56,0.22,0.96,0.48,1.38,0.9
    c0.42,0.42,0.68,0.82,0.9,1.38c0.16,0.42,0.36,1.06,0.41,2.23c0.06,1.27,0.07,1.65,0.07,4.85c0,3.2-0.01,3.58-0.07,4.85
    c-0.05,1.17-0.25,1.8-0.41,2.23c-0.22,0.56-0.48,0.96-0.9,1.38c-0.42,0.42-0.82,0.68-1.38,0.9c-0.42,0.16-1.06,0.36-2.23,0.41
    c-1.27,0.06-1.65,0.07-4.85,0.07c-3.2,0-3.58-0.01-4.85-0.07c-1.17-0.05-1.8-0.25-2.23-0.41c-0.56-0.22-0.96-0.48-1.38-0.9
    c-0.42-0.42-0.68-0.82-0.9-1.38c-0.16-0.42-0.36-1.06-0.41-2.23c-0.06-1.27-0.07-1.65-0.07-4.85c0-3.2,0.01-3.58,0.07-4.85
    c0.05-1.17,0.25-1.8,0.41-2.23c0.22-0.56,0.48-0.96,0.9-1.38c0.42-0.42,0.82-0.68,1.38-0.9c0.42-0.16,1.06-0.36,2.23-0.41
    C11.42,5.38,11.8,5.37,15,5.37z M15,8.89c-3.37,0-6.11,2.73-6.11,6.11s2.73,6.11,6.11,6.11s6.11-2.73,6.11-6.11
    S18.37,8.89,15,8.89z M15,18.67c-2.04,0-3.7-1.66-3.7-3.7c0-2.04,1.66-3.7,3.7-3.7c2.04,0,3.7,1.66,3.7,3.7
    C18.7,17.01,17.04,18.67,15,18.67z M21.43,8.57c0,0.79-0.64,1.43-1.43,1.43c-0.79,0-1.43-0.64-1.43-1.43
    c0-0.79,0.64-1.43,1.43-1.43C20.79,7.14,21.43,7.78,21.43,8.57z"/>
</svg> 