<?xml version="1.0" encoding="UTF-8"?>
<svg xmlns="http://www.w3.org/2000/svg" width="30" height="30" viewBox="0 0 30 30">
  <path fill="#FFFFFF" d="M24,4H6C4.895,4,4,4.895,4,6v18c0,1.105,0.895,2,2,2h18c1.105,0,2-0.895,2-2V6C26,4.895,25.105,4,24,4z M20.517,13.381
    c-0.213,0.021-0.424,0.034-0.637,0.034c-1.345,0-2.595-0.438-3.617-1.186v5.547c0,2.754-2.243,4.997-4.998,4.997
    c-2.754,0-4.997-2.243-4.997-4.997s2.243-4.997,4.997-4.997c0.172,0,0.343,0.011,0.512,0.029v2.553
    c-0.169-0.046-0.344-0.072-0.524-0.072c-1.102,0-1.995,0.893-1.995,1.995c0,1.102,0.893,1.995,1.995,1.995
    c1.102,0,2.043-0.893,2.043-1.995l0.001-9.833h2.447c0.217,2.059,1.866,3.66,3.903,3.66c0.295,0,0.585-0.036,0.864-0.092V13.381z"/>
</svg> 